# xmcd
#
# Track frame offsets:
#	150
#	13062
#	25577
#	44407
#	60598
#	82948
#	99704
#	112681
#	132897
#	148455
#	166641
#	181838
#	197904
#	218240
#	232070
#	250088
#	269078
#	281375
#	294065
#	309516
#
# Disc length: 4318 seconds
#
# Revision: 0
# Processed by: cddbd v1.5.2PL0 Copyright (c) Steve Scherf et al.
# Submitted via: audiograbber 1.83.01
#
DISCID=1710dc14
DTITLE=Boot Scootin' 4 - Mobile Beat Country 4
DYEAR=1997
DGENRE=Country
TTITLE0=Alan Jackson - Don't Rock the Jukebox
TTITLE1=Roger Brown and Swing City - Swing City
TTITLE2=Jimmy Buffett - Margaritaville
TTITLE3=Rick Trevino - I Only Get This Way With You
TTITLE4=Martina McBride - Life #9 (Dance Mix)
TTITLE5=Shenandoah - If Bubba Can Dance (Dance Mix)
TTITLE6=Bobby Helms - Fraulein
TTITLE7=Brooks and Dunn - My Maria (Extended Remix)
TTITLE8=Charlie Daniels Band - Boogie Woogie Fiddle Country Blues
TTITLE9=John Michael Montgomery - I Love the Way You Love Me
TTITLE10=George Strait - The Man In Love With You
TTITLE11=Dolly Parton and Friends - Romeo
TTITLE12=Steve Earle - Copperhead Road
TTITLE13=Collin Raye - That's My Story
TTITLE14=Hank Williams, Jr. - Family Tradition
TTITLE15=Wynonna Judd - No One Else On Earth (Dance Mix)
TTITLE16=Tim McGraw - Refried Dreams
TTITLE17=Patsy Cline - I Fall To Pieces
TTITLE18=Ty England - Redneck Son (remix)
TTITLE19=Lionel Cartwright - My Heart Is Set On You
EXTD=
EXTT0=
EXTT1=
EXTT2=
EXTT3=
EXTT4=
EXTT5=
EXTT6=
EXTT7=
EXTT8=
EXTT9=
EXTT10=
EXTT11=
EXTT12=
EXTT13=
EXTT14=
EXTT15=
EXTT16=
EXTT17=
EXTT18=
EXTT19=
PLAYORDER=
